<svg width="512" height="512" viewBox="0 0 512 512" fill="none" xmlns="http://www.w3.org/2000/svg">
<path opacity="0.998" fill-rule="evenodd" clip-rule="evenodd" d="M512.5 132.5C512.5 214.5 512.5 296.5 512.5 378.5C499.169 453.831 454.835 498.165 379.5 511.5C297.5 511.5 215.5 511.5 133.5 511.5C58.165 498.165 13.831 453.831 0.5 378.5C0.5 296.5 0.5 214.5 0.5 132.5C13.708 57.6258 57.708 13.2924 132.5 -0.5C215.167 -0.5 297.833 -0.5 380.5 -0.5C455.293 13.2924 499.292 57.6258 512.5 132.5Z" fill="#6D28D9"/>
<path fill-rule="evenodd" clip-rule="evenodd" d="M446.5 248.5C447.843 267.979 440.509 283.145 424.5 294C419.184 296.994 413.517 298.994 407.5 300C306.833 300.667 206.167 300.667 105.5 300C80.8209 294.822 67.8209 279.655 66.4999 254.5C68.6989 230.461 81.6989 215.961 105.5 211C206.167 210.333 306.833 210.333 407.5 211C428.627 215.298 441.627 227.798 446.5 248.5Z" fill="#FCFDFE"/>
<path fill-rule="evenodd" clip-rule="evenodd" d="M319.5 124.5C322.406 151.544 311.073 169.378 285.5 178C224.167 178.667 162.833 178.667 101.5 178C79.447 171.417 67.78 156.583 66.5 133.5C68.742 109.422 81.742 94.9217 105.5 90C164.167 89.3333 222.833 89.3333 281.5 90C300.704 94.3735 313.371 105.874 319.5 124.5Z" fill="#FEFEFE"/>
<path fill-rule="evenodd" clip-rule="evenodd" d="M193.5 370.5C193.886 397.267 181.22 414.1 155.5 421C138.833 421.667 122.167 421.667 105.5 421C77.9242 414.358 65.0902 396.858 67.0002 368.5C71.4252 349.742 82.9252 337.909 101.5 333C121.885 332.048 142.218 332.381 162.5 334C179.231 340.885 189.564 353.052 193.5 370.5Z" fill="#FDFEFE"/>
</svg>
