<svg width="653" height="180" viewBox="0 0 653 180" fill="none" xmlns="http://www.w3.org/2000/svg">
<path fill-rule="evenodd" clip-rule="evenodd" d="M426.054 157.456L426.047 157.455C425.387 154.59 424.736 151.724 424.085 148.861C423.032 144.228 421.981 139.6 420.894 134.983C418.113 123.074 415.301 111.135 412.396 99.2576C411.268 94.6316 410.087 90.0134 408.905 85.3952L408.905 85.3947C407.723 80.7764 406.541 76.1581 405.413 71.5319C404.673 68.4568 404.005 65.3637 403.338 62.2712L403.338 62.27C402.502 58.3924 401.665 54.5158 400.685 50.6769C399.14 44.6922 396.576 39.1044 393.022 34.0356C387.955 26.86 380.508 23.5012 372.135 21.6386C371.485 21.4859 370.62 20.8447 370.435 20.2645C370.035 18.9318 369.713 17.5779 369.39 16.2231C369.041 14.7535 368.691 13.2828 368.241 11.837C368.125 11.453 368.012 11.0649 367.899 10.6753C367.256 8.46224 366.598 6.19943 365.336 4.35604C362.617 0.417076 357.303 -0.865376 352.359 0.569748C348.959 1.54686 344.788 6.76825 344.541 10.7988C344.325 14.1817 344.386 17.5949 344.448 21.0083L344.448 21.0279C344.479 22.5546 343.985 23.4707 342.471 24.0508C336.878 26.1883 332.12 29.2722 328.689 34.4326C325.816 38.7685 323.468 43.2265 323.035 48.3256C322.608 53.2053 322.619 58.13 322.63 63.0415C322.631 63.816 322.633 64.5902 322.633 65.3639C322.572 101.332 322.572 137.27 322.572 173.237V173.243V175.777H344.448V172.998C344.448 160.866 344.45 148.731 344.452 136.596L344.452 136.033C344.458 99.2451 344.464 62.4486 344.417 25.6692C344.417 23.8982 344.943 23.2264 346.673 22.6768C353.563 20.4783 360.547 20.4783 367.623 21.1195C369.446 21.3027 370.713 21.547 371.176 23.6844C372.458 29.5952 373.843 35.4913 375.229 41.3931L375.23 41.3971L375.233 41.4086C375.851 44.0383 376.469 46.6691 377.078 49.3028C378.241 54.2747 379.397 59.25 380.552 64.2253C382.868 74.1917 385.183 84.158 387.553 94.097C388.503 98.0908 389.521 102.074 390.541 106.06L390.542 106.063L390.542 106.064C391.977 111.676 393.414 117.293 394.66 122.952C394.858 123.881 395.037 124.814 395.216 125.745C395.932 129.467 396.644 133.169 398.522 136.54C399.325 138.005 400.237 139.409 401.148 140.813L401.148 140.814L401.149 140.815C402.06 142.219 402.972 143.624 403.776 145.09C405.629 148.418 408.38 150.617 411.655 152.357C416.18 154.79 420.981 156.406 425.997 157.444L425.962 157.479H425.993L426.039 157.48C426.265 158.396 426.482 159.313 426.699 160.229L426.699 160.233C427.693 164.434 428.686 168.631 430.504 172.624C432.204 176.349 434.861 178.273 438.754 178.822C442.709 179.372 446.541 178.639 448.92 175.311C451.022 172.38 452.165 168.899 452.196 165.174C452.203 164.63 452.215 164.086 452.227 163.543C452.267 161.737 452.307 159.935 452.165 158.151C452.011 156.319 452.845 155.586 454.39 154.792C455.163 154.39 455.954 153.999 456.747 153.607L456.749 153.606C459.695 152.15 462.683 150.673 465.019 148.532C471.385 142.669 474.011 135.097 474.011 126.395C473.949 99.7378 473.97 73.0808 473.99 46.4237V46.3941C474.001 33.0607 474.011 19.7273 474.011 6.39383C474.011 5.6309 473.961 4.85146 473.91 4.05555L473.91 4.05451C473.891 3.76772 473.873 3.47878 473.856 3.18771H452.103V7.76788C452.134 56.3482 452.165 104.96 452.227 153.54C452.227 155.066 451.701 155.952 450.187 156.196C449.2 156.356 448.211 156.533 447.221 156.71C444.427 157.209 441.622 157.71 438.816 157.846C435.829 157.995 432.826 157.83 429.83 157.665L429.827 157.665C428.57 157.596 427.314 157.527 426.06 157.481L426.116 157.426L426.054 157.456ZM426.039 157.48L426.032 157.452L426.047 157.455L426.053 157.481L426.039 157.48ZM151.867 21.5384L151.855 21.6067L151.845 21.6019L151.783 21.6286L151.79 21.5748L151.731 21.5457C151.776 21.5431 151.822 21.5406 151.867 21.5384ZM151.867 21.5384C151.985 20.8819 152.113 20.2254 152.24 19.5683L152.24 19.5681L152.24 19.5676L152.24 19.5674C152.576 17.833 152.913 16.0941 153.091 14.3395C153.523 10.37 155.037 6.88909 157.355 3.7135C161.341 -1.7522 171.476 -0.988831 175.06 4.72114C177.656 8.84332 177.841 13.1487 177.656 17.6372L177.649 17.8196C177.47 22.7695 177.465 22.8832 182.167 24.9045C192.426 29.3014 197.4 37.7595 198.699 47.8969C199.628 55.1526 199.565 62.5351 199.501 69.9188C199.483 72.1059 199.464 74.2933 199.471 76.4774C199.57 102.513 199.59 128.529 199.61 154.557C199.614 161.008 199.619 167.46 199.625 173.913V175.867H177.779C177.759 175.601 177.731 175.335 177.703 175.069C177.649 174.541 177.594 174.013 177.594 173.486V27.8969C177.594 25.2279 177.594 23.8916 176.935 23.1107C176.275 22.3277 174.953 22.103 172.304 21.653L172.032 21.6067C165.79 20.538 159.549 20.5075 153.276 21.4541C152.944 21.495 152.598 21.5085 152.248 21.5222C152.121 21.5271 151.994 21.5321 151.867 21.5384ZM149.471 22.6279C150.241 22.2954 151.012 21.9627 151.783 21.6286C151.292 25.7916 150.8 29.9547 150.338 34.1178C150.049 36.6111 149.765 39.107 149.481 41.6041L149.481 41.6045L149.481 41.6049C148.794 47.6394 148.106 53.6802 147.341 59.7056C146.644 65.175 145.864 70.6446 145.087 76.1023L145.087 76.1028L145.087 76.103L145.085 76.1162C144.795 78.1492 144.506 80.1806 144.221 82.2097C143.653 86.2139 143.073 90.2181 142.493 94.2224C141.524 100.905 140.556 107.588 139.647 114.271C139.386 116.243 139.209 118.226 139.033 120.206L139.033 120.206L139.033 120.207V120.207C138.773 123.131 138.513 126.051 137.979 128.928C136.959 134.454 134.518 139.462 130.686 143.706C130.145 144.308 129.651 144.945 129.158 145.581C128.525 146.398 127.893 147.213 127.164 147.951C123.688 151.416 119.108 152.915 114.556 154.404L114.495 154.424C113.228 154.851 112.703 155.401 112.548 156.744C112.085 161.141 111.467 165.508 110.849 169.874C109.984 175.951 103.897 180.103 97.7476 178.852C92.7109 177.844 89.0338 173.813 88.107 168.134C87.798 166.241 87.5353 164.333 87.2727 162.425C87.01 160.516 86.7472 158.608 86.4381 156.714C86.3147 156.012 85.6967 155.065 85.0479 154.791C83.8369 154.237 82.573 153.798 81.3059 153.358C80.4066 153.046 79.5058 152.733 78.6209 152.378C78.5371 152.344 78.4528 152.309 78.3681 152.275C77.3288 151.85 76.2405 151.404 75.4692 150.699C75.0027 150.275 74.5307 149.852 74.0577 149.429C71.7734 147.383 69.4635 145.316 67.6207 142.912C66.3248 141.228 65.5138 139.179 64.7081 137.144C64.4187 136.413 64.13 135.683 63.8197 134.973C61.6305 129.925 60.8752 124.55 60.121 119.182C60.0942 118.992 60.0675 118.802 60.0407 118.612C60.0233 118.488 60.0059 118.364 59.9884 118.241C59.6538 115.853 59.3109 113.465 58.9679 111.077L58.9678 111.076C58.1706 105.525 57.3733 99.9743 56.682 94.4234C56.3974 92.0845 56.2291 89.7312 56.0607 87.3773C55.8818 84.8762 55.7028 82.3746 55.3844 79.8891C54.5616 73.5481 53.6568 67.2341 52.7519 60.9202C52.2973 57.748 51.8427 54.5758 51.3985 51.4003C50.7803 47.0945 50.17 42.7811 49.5597 38.4676C48.9495 34.1551 48.3393 29.8425 47.7213 25.5376L47.7159 25.4993C47.165 21.598 47.1519 21.5057 43.1481 21.1101C36.2575 20.4078 29.4596 20.8352 22.7544 22.7284C21.4566 23.0948 21.4257 23.9193 21.4257 24.8659V33.9651V173.508C21.4257 175.157 20.5914 175.981 18.9229 175.981H0.414042C0.402623 175.699 0.386984 175.43 0.371803 175.168L0.371799 175.168C0.345903 174.721 0.321342 174.298 0.321342 173.874V56.8964C0.321342 56.6648 0.321172 56.4332 0.321002 56.2015C0.3172 51.0265 0.313383 45.8317 2.20622 40.8049C4.24557 35.4918 8.04623 31.4918 11.9396 27.5834C12.5983 26.9325 13.569 26.5591 14.5303 26.1893C14.9218 26.0387 15.3118 25.8887 15.6784 25.7208C16.1419 25.5071 16.6131 25.3086 17.0842 25.1101L17.0843 25.1101L17.0845 25.11C17.5557 24.9116 18.0268 24.7131 18.4903 24.4994C20.4988 23.6139 21.4566 22.2093 21.333 19.9192C21.1926 17.4486 21.3075 14.9778 21.4224 12.5072C21.4339 12.2603 21.4454 12.0134 21.4566 11.7665C21.7347 4.89623 27.4511 -0.264118 34.3726 0.0106954C37.7407 0.163367 40.3671 1.87331 42.4683 4.22447C44.8476 6.88098 46.3926 9.96495 46.4543 13.6291C46.4717 14.797 46.5771 15.9649 46.6824 17.1327C46.7644 18.0412 46.8464 18.9497 46.8869 19.8582C46.9487 21.2017 47.6901 21.8124 48.8643 22.3009C49.1486 22.4156 49.433 22.53 49.7173 22.6444C52.4603 23.7481 55.1937 24.8479 57.8254 26.1483C63.4182 28.9269 66.3539 34.0567 69.0729 39.2171C72.5955 45.9042 74.1711 53.1104 74.6345 60.6828C74.9519 65.9865 75.6928 71.2902 76.4317 76.579L76.4317 76.5792L76.4319 76.5808L76.4321 76.5825C76.629 77.9913 76.8256 79.399 77.0141 80.8054C77.6389 85.5154 78.2929 90.2255 78.9472 94.9375C79.9429 102.108 80.9392 109.283 81.8341 116.47C82.6913 123.227 83.4473 129.995 84.2038 136.767C84.702 141.226 85.2003 145.688 85.7279 150.149C86.2829 154.994 86.3452 155.004 91.0747 155.763L91.1041 155.767C97.6237 156.805 104.113 156.562 110.602 155.401C112.24 155.096 112.826 154.271 113.012 152.806C114.032 145.111 115.082 137.416 116.133 129.721C116.489 127.065 116.859 124.409 117.229 121.752L117.229 121.752L117.229 121.751C117.982 116.344 118.735 110.933 119.377 105.508C119.677 103.019 119.868 100.517 120.059 98.0104C120.261 95.3493 120.464 92.6839 120.799 90.0264C120.897 89.2492 120.996 88.4718 121.094 87.6944L121.094 87.6939L121.094 87.6934C122.446 77.0171 123.8 66.3217 125.557 55.7056C126.414 50.6264 128.012 45.645 129.6 40.6958L129.6 40.6956C129.787 40.1108 129.975 39.5263 130.161 38.9423C130.69 37.2869 131.918 35.7973 133.074 34.3946L133.251 34.1788C135.105 31.9193 137.114 29.7819 139.122 27.675C139.709 27.0643 140.544 26.5758 141.316 26.2094C144.02 24.9795 146.743 23.8046 149.471 22.6279ZM151.791 21.5751V21.5986H151.838L151.793 21.5762L151.791 21.5751ZM652.599 175.967H652.675L652.615 176.028L652.599 175.967ZM652.599 175.967C645.334 175.967 638.502 175.967 631.665 175.906C631.201 175.906 630.426 175.234 630.275 174.745C629.037 170.016 627.825 165.286 626.612 160.556L626.61 160.547C625.46 156.059 624.309 151.57 623.137 147.081C621.889 142.279 620.59 137.49 619.29 132.697C618.623 130.237 617.955 127.775 617.294 125.31C616.896 123.844 616.06 123.264 614.392 123.264C589.302 123.325 564.212 123.325 539.152 123.264C537.545 123.264 536.835 123.692 536.432 125.371C534.084 135.508 531.672 145.615 529.138 155.723C528.286 159.088 527.34 162.436 526.394 165.786L526.393 165.786L526.393 165.787C525.623 168.514 524.852 171.242 524.131 173.982C523.763 175.417 523.144 176.028 521.537 175.997C516.826 175.932 512.133 175.944 507.389 175.957H507.387C505.471 175.962 503.547 175.967 501.61 175.967C501.62 175.907 501.631 175.849 501.641 175.792C501.664 175.658 501.685 175.532 501.705 175.413C501.772 175.007 501.828 174.67 501.917 174.349C502.842 171.032 503.769 167.717 504.696 164.402C507.267 155.207 509.838 146.016 512.359 136.791C513.218 133.662 514.014 130.518 514.809 127.374L514.81 127.371C515.59 124.287 516.37 121.203 517.21 118.135C518.046 115.089 518.974 112.061 519.904 109.032C520.661 106.564 521.419 104.096 522.126 101.615C525.123 90.9282 528.09 80.2408 530.992 69.5232C531.47 67.7522 531.857 65.9659 532.243 64.1796L532.244 64.1788L532.244 64.1779C532.63 62.3923 533.017 60.6067 533.495 58.8363C534.482 55.1108 535.626 51.4467 536.835 47.7827C537.236 46.5406 537.822 45.3671 538.413 44.1831C538.505 43.9991 538.597 43.8148 538.688 43.63C538.905 43.188 539.179 42.7647 539.453 42.3417C539.878 41.6837 540.303 41.0267 540.512 40.3017C542.021 35.4339 545.771 32.4865 549.474 29.5756C550.393 28.853 551.31 28.1326 552.188 27.3856C553.905 25.9372 556.218 25.143 558.508 24.3564C559.307 24.0818 560.104 23.808 560.872 23.5077C562.232 22.9886 562.786 22.1031 563.159 20.7902C563.545 19.4604 563.895 18.1196 564.246 16.7786C565.328 12.6387 566.411 8.4965 568.534 4.66788C569.894 2.1946 571.657 0.881613 574.377 0.33199C580.275 -0.828326 584.915 1.52284 586.733 7.11067C588.224 11.6448 589.442 16.2676 590.661 20.8918L590.661 20.8938L590.723 21.126C591 22.2252 591.433 22.8665 592.516 23.294C593.157 23.5459 593.808 23.7825 594.458 24.0192C596.411 24.7291 598.363 25.439 600.051 26.5612C606.111 30.5001 611.733 34.9887 614.297 42.0727C614.9 43.7297 615.523 45.3818 616.146 47.0338C617.727 51.227 619.308 55.4199 620.573 59.6911C621.186 61.7641 621.804 63.8364 622.422 65.909L622.431 65.9389L622.44 65.9702L622.441 65.9728C625.805 77.2503 629.172 88.5366 631.725 99.9966C633.187 106.553 635.16 112.937 637.132 119.322C638.789 124.683 640.445 130.045 641.8 135.508C643.155 140.987 644.719 146.429 646.283 151.873C647.212 155.107 648.142 158.342 649.028 161.585C649.919 164.863 650.715 168.171 651.539 171.593C651.885 173.029 652.235 174.485 652.599 175.967ZM612.473 105.89H541.56L541.499 105.859C541.84 104.514 542.156 103.203 542.465 101.92L542.476 101.875L542.477 101.868C543.202 98.8609 543.891 96.0018 544.773 93.1874C547.211 85.4115 549.002 77.4912 550.795 69.5619L550.796 69.5607L550.796 69.5594C551.186 67.8373 551.575 66.1148 551.971 64.3933C553.174 59.1628 554.661 54.0112 556.149 48.8562L556.149 48.8544C557.111 45.5237 558.072 42.1916 558.958 38.8361C560.099 34.5657 560.99 30.2207 561.882 25.8685L561.882 25.8669L561.882 25.8652L561.896 25.8005C561.987 25.3518 562.08 24.9031 562.172 24.4543C562.419 23.2024 563.129 22.7138 564.272 22.4085C572.71 20.1794 581.142 20.3016 589.549 22.4696C590.35 22.6833 591.307 23.6299 591.523 24.3932C592.465 27.8933 593.341 31.4115 594.218 34.9329L594.219 34.9368C594.955 37.8961 595.693 40.8579 596.47 43.8132C597.546 47.9182 598.661 52.0233 599.776 56.1312L599.78 56.1448C601.127 61.1074 602.475 66.0742 603.759 71.0499C604.538 74.0586 605.246 77.0847 605.953 80.1096C606.566 82.7335 607.179 85.3565 607.839 87.9663C608.644 91.1465 609.514 94.316 610.384 97.4874C610.985 99.6753 611.586 101.864 612.166 104.058C612.289 104.517 612.353 104.996 612.419 105.494C612.429 105.568 612.439 105.643 612.449 105.718C612.457 105.775 612.465 105.833 612.473 105.89ZM271.248 3.18771H250.329V175.739H271.248V3.18771Z" fill="url(#paint0_linear_141_52)"/>
<defs>
<linearGradient id="paint0_linear_141_52" x1="0.320312" y1="89.5372" x2="652.675" y2="89.5372" gradientUnits="userSpaceOnUse">
<stop stop-color="#DA6231"/>
<stop offset="1" stop-color="#9575DB"/>
</linearGradient>
</defs>
</svg>
