<svg width="450" height="628" viewBox="0 0 450 628" fill="none" xmlns="http://www.w3.org/2000/svg">
<path d="M70.6052 502.998C41.6907 502.687 21.9212 493.254 11.2968 474.701C3.76561 461.449 0 440.402 0 411.559V235.697C0 207.946 4.16907 187.522 12.5072 174.426C23.6695 156.809 43.7752 148 72.8242 148C102.008 148 121.643 158.758 131.729 180.273C137.243 192.277 140 210.752 140 235.697V408.519C140 435.023 137.109 454.823 131.326 467.92C120.97 491.461 100.73 503.154 70.6052 502.998ZM70.2017 200.151C65.6292 200.151 62.6033 202.645 61.1239 207.634C60.317 210.752 59.9135 217.066 59.9135 226.577V428.163C59.9135 441.26 63.4774 447.808 70.6052 447.808C76.6571 447.808 79.683 441.26 79.683 428.163V226.577C79.683 215.819 79.2795 209.037 78.4726 206.231C77.3967 202.177 74.6398 200.151 70.2017 200.151Z" fill="#0473FF"/>
<path d="M149.974 125.577H111V61.4088C127.435 61.4088 140.974 52.784 151.617 35.5343C159.757 22.1946 163.826 10.3498 163.826 0H219V503H149.974V125.577Z" fill="url(#paint0_linear_144_25)"/>
<path d="M223.394 628H208V565.516C219.196 564.629 225.882 562.857 228.059 560.198C231.013 556.431 232.491 546.571 232.491 530.618V153.053H295V556.542C295 588.227 287.769 608.945 273.308 618.694C264.445 624.898 247.807 628 223.394 628ZM295 131.117H232.491V57H295V131.117Z" fill="#0473FF"/>
<path d="M310 407.585V365.022H369.449V426.294C369.449 442.196 372.763 450.148 379.391 450.148C383.99 450.148 387.034 447.887 388.522 443.366C389.333 440.403 389.739 434.713 389.739 426.294V398.932C389.739 390.669 389.063 384.511 387.71 380.457C385.411 373.597 380 365.256 371.478 355.434L336.174 314.742C324.676 301.49 317.643 291.512 315.072 284.808C311.691 275.454 310 259.084 310 235.698C310 211.844 313.314 193.447 319.942 180.507C331.169 158.836 352.068 148 382.638 148C411.314 148 430.725 157.276 440.87 175.829C446.415 185.807 449.188 200.151 449.188 218.86V277.325H389.739V224.238C389.739 215.664 389.333 210.129 388.522 207.634C387.304 203.737 384.396 201.788 379.797 201.788C373.44 201.788 370.261 207.011 370.261 217.457C370.261 233.671 370.937 245.208 372.29 252.068C374.184 262.358 378.512 271.4 385.275 279.196L420.58 320.355C435.459 337.817 444.184 350.991 446.754 359.877C448.918 367.049 450 384.745 450 412.964C450 442.274 445.333 463.945 436 477.977C424.908 494.659 406.174 503 379.797 503C350.309 503 330.493 493.568 320.348 474.703C313.449 461.763 310 439.39 310 407.585Z" fill="url(#paint1_linear_144_25)"/>
<defs>
<linearGradient id="paint0_linear_144_25" x1="54" y1="172.5" x2="229.5" y2="503" gradientUnits="userSpaceOnUse">
<stop offset="0.345" stop-color="#00FF00"/>
<stop offset="0.535" stop-color="#00FFFF"/>
<stop offset="0.75" stop-color="#1C00FF"/>
</linearGradient>
<linearGradient id="paint1_linear_144_25" x1="380" y1="352" x2="503" y2="462.5" gradientUnits="userSpaceOnUse">
<stop stop-color="#0473FF"/>
<stop offset="1" stop-color="#00116C"/>
</linearGradient>
</defs>
</svg>
